<?xml version="1.0" encoding="UTF-8"?>
<svg id="Laag_2" data-name="Laag 2" xmlns="http://www.w3.org/2000/svg" viewBox="0 0 375.23 304.92">
  <defs>
    <style>
      .cls-1 {
        fill: #de5419;
      }
    </style>
  </defs>
  <path class="cls-1" d="M293.54,142.87c-.36,0-.72,0-1.08-.01-1.05-.03-2.1-.1-3.15-.19v101.29H5.16V87.25h215.57c-.46-1.72-.79-3.43-.99-5.16H0v175.8h135.75v23.57l-54.73,2.41,11.22,21.04,56.09-.65,56.09.65,11.22-21.04-56.97-2.51v-23.49h135.75v-8.79h0v-106.25c-.3,0-.62.03-.92.03h.03Z"/>
  <g>
    <path class="cls-1" d="M342.52,173.55c-1.74-1.34-3.46-2.69-5.2-4.01-1.21-.92-1.09-1.64.19-2.37,3.92-2.23,7.79-4.55,11.72-6.74,1.24-.69,1.88-1.38,1.69-2.94-.33-2.86,1.28-4.77,4.14-4.97,1.31-.1,2.24-.55,3.03-1.57,6.62-8.63-12.02-31.17-5.39-39.79,1.34-1.75,1.18-2.07-.98-2.53-25.17-5.3-50.35-10.61-75.51-15.9-1.38-.29-2.18-.99-2.79-2.21-9.87-19.75-19.76-39.49-29.68-59.21-4.88-9.72-9.78-19.42-14.67-29.13-.29-.57-.93-1.25-.57-1.81.47-.75,1.36-.19,2.03-.04,15.51,3.26,31.01,6.55,46.51,9.82,16.35,3.45,32.69,6.94,49.05,10.3,2.23.46,3.55,1.39,4.58,3.46,10.96,22.02,22.02,44,33.05,65.97,3.63,7.23,7.27,14.45,10.9,21.68.26.5.88,1.03.45,1.61s-1.12.16-1.67.04c-4.61-.95-9.22-1.88-13.82-2.92-1.57-.34-2.63,0-3.61,1.29-6.94,9.06,11.39,32.02,4.41,41.05-.78,1.01-1.08,2-.86,3.3.5,3.1-.72,4.83-3.84,5.33-1.38.22-1.88.9-2.2,2.13-1.11,4.29-2.27,8.59-3.45,12.87-.6,2.21-.93,2.31-2.79.92-1.59-1.19-3.16-2.43-4.73-3.63h-.03Z"/>
    <path class="cls-1" d="M235.74,57.02c2.71-3.52,5.42-7.05,8.14-10.56,1.81-2.33,2.15-2.28,3.45.29,7.87,15.63,15.76,31.26,23.6,46.9.66,1.31,1.51,2,2.94,2.3,17.12,3.61,34.24,7.27,51.37,10.9,2.86.6,3,.92,1.22,3.23-4.86,6.31-9.94,12.45-14.51,18.96-4.81,6.84-11.35,9.42-19.36,9.19-8.24-.24-15.93-2.7-23.27-6.23-15.74-7.58-28.76-18.39-38.24-33.2-3.94-6.16-6.79-12.74-6.98-20.24-.1-4.14,1.11-7.84,3.61-11.13,2.66-3.48,5.34-6.94,8.02-10.4h.01Z"/>
  </g>
  <g>
    <path class="cls-1" d="M39.33,187.67c-1.67,0-3.19-.42-4.54-1.25s-2.43-1.95-3.22-3.35c-.79-1.39-1.19-2.96-1.19-4.7l.04-14.22c0-1.67.39-3.2,1.16-4.58s1.84-2.48,3.19-3.33c1.35-.83,2.86-1.25,4.54-1.25s3.17.42,4.51,1.24,2.4,1.92,3.19,3.3,1.18,2.93,1.18,4.63v2.1c0,.11-.06.19-.19.19h-5.1c-.11,0-.19-.06-.19-.19v-2.1c0-1.01-.33-1.87-.98-2.6-.66-.73-1.47-1.09-2.44-1.09-1.09,0-1.92.37-2.51,1.12s-.86,1.61-.86,2.57v14.22c0,1.12.33,2.04.98,2.73s1.45,1.05,2.4,1.05,1.78-.39,2.44-1.16c.65-.78.98-1.65.98-2.61v-2.1c0-.11.06-.19.19-.19h5.16c.11,0,.19.06.19.19v2.1c0,1.74-.4,3.3-1.21,4.7s-1.88,2.51-3.22,3.35-2.84,1.25-4.51,1.25h.01Z"/>
    <path class="cls-1" d="M60.01,187.67c-1.64,0-3.13-.42-4.48-1.25s-2.44-1.94-3.26-3.33c-.82-1.38-1.24-2.9-1.24-4.58l.04-14.45c0-1.67.4-3.19,1.21-4.55s1.9-2.46,3.26-3.27c1.36-.82,2.86-1.24,4.47-1.24s3.13.42,4.47,1.24,2.41,1.91,3.22,3.27c.8,1.36,1.21,2.89,1.21,4.55l.04,14.45c0,1.67-.4,3.2-1.21,4.58s-1.88,2.48-3.23,3.33-2.84,1.25-4.48,1.25h-.01ZM60.01,182.16c.9,0,1.71-.37,2.4-1.12s1.02-1.58,1.02-2.53l-.04-14.45c0-1.01-.32-1.85-.96-2.56-.63-.7-1.44-1.05-2.41-1.05s-1.75.34-2.41,1.02c-.68.69-1.01,1.54-1.01,2.57v14.45c0,1.01.33,1.87,1.01,2.57.66.72,1.48,1.06,2.41,1.06v.03Z"/>
    <path class="cls-1" d="M72.6,187.21c-.11,0-.19-.07-.19-.23l.09-31.3c0-.11.06-.19.19-.19h5.56c.11,0,.23.06.32.19l4.15,6.02,4.15-6.02c.09-.11.2-.19.32-.19h5.6c.11,0,.19.06.19.19l.09,31.3c0,.16-.06.23-.19.23h-5.14c-.11,0-.19-.07-.19-.23l-.04-23.24-4.78,6.92-4.74-6.92-.04,23.24c0,.16-.06.23-.19.23h-5.16.01Z"/>
    <path class="cls-1" d="M97.1,187.21c-.16,0-.23-.07-.23-.23l.09-31.3c0-.11.06-.19.19-.19h8.75c2.8,0,5,.85,6.64,2.56,1.62,1.71,2.44,4.01,2.44,6.92,0,2.15-.43,4.02-1.28,5.6-.85,1.58-1.95,2.8-3.33,3.65-1.36.85-2.86,1.28-4.47,1.28h-3.46v11.48c0,.16-.07.23-.23.23h-5.1,0ZM102.43,169.99h3.46c.98,0,1.81-.46,2.53-1.39s1.06-2.14,1.06-3.62c0-1.18-.32-2.15-.96-2.92-.63-.76-1.52-1.13-2.64-1.13l-3.46.04v9.02h.01Z"/>
    <path class="cls-1" d="M126.45,187.67c-1.61,0-3.1-.42-4.47-1.25s-2.46-1.95-3.26-3.35-1.21-2.93-1.21-4.6l.09-22.78c0-.11.06-.19.19-.19h5.1c.11,0,.19.06.19.19v22.78c0,1.03.33,1.91.98,2.61s1.45,1.06,2.4,1.06,1.78-.36,2.44-1.06c.65-.72.98-1.58.98-2.61v-22.78c0-.11.06-.19.19-.19h5.1c.11,0,.19.06.19.19l.09,22.78c0,1.69-.4,3.25-1.21,4.65s-1.88,2.5-3.23,3.33c-1.35.82-2.86,1.24-4.54,1.24v-.03Z"/>
    <path class="cls-1" d="M143.58,187.21c-.11,0-.19-.07-.19-.23v-25.97h-5.92c-.16,0-.23-.07-.23-.23l.04-5.1c0-.11.06-.19.19-.19h17.32c.16,0,.23.06.23.19v5.1c0,.16-.06.23-.19.23h-5.98l.04,25.97c0,.16-.06.23-.19.23h-5.16.01Z"/>
    <path class="cls-1" d="M165.23,187.67c-1.64,0-3.13-.42-4.48-1.25s-2.44-1.94-3.26-3.33c-.82-1.38-1.24-2.9-1.24-4.58l.04-14.45c0-1.67.4-3.19,1.21-4.55s1.9-2.46,3.26-3.27c1.36-.82,2.86-1.24,4.47-1.24s3.13.42,4.47,1.24,2.41,1.91,3.22,3.27c.8,1.36,1.21,2.89,1.21,4.55l.04,14.45c0,1.67-.4,3.2-1.21,4.58-.8,1.38-1.88,2.48-3.23,3.33s-2.84,1.25-4.48,1.25h-.01ZM165.23,182.16c.9,0,1.71-.37,2.4-1.12s1.02-1.58,1.02-2.53l-.04-14.45c0-1.01-.32-1.85-.96-2.56-.63-.7-1.44-1.05-2.41-1.05s-1.75.34-2.41,1.02c-.68.69-1.01,1.54-1.01,2.57v14.45c0,1.01.33,1.87,1.01,2.57.66.72,1.48,1.06,2.41,1.06v.03Z"/>
    <path class="cls-1" d="M177.8,187.21c-.11,0-.19-.07-.19-.23l.09-31.3c0-.11.06-.19.19-.19h9.21c1.64,0,3.15.4,4.54,1.21,1.38.8,2.48,1.88,3.3,3.23s1.24,2.87,1.24,4.58c0,1.12-.17,2.14-.5,3.03-.33.89-.73,1.65-1.19,2.28-.46.62-.86,1.09-1.24,1.39,1.64,1.82,2.46,3.96,2.46,6.42l.04,9.34c0,.16-.07.23-.23.23h-5.14c-.11,0-.19-.04-.19-.14v-9.44c0-1.09-.39-2.04-1.16-2.84s-1.72-1.21-2.84-1.21h-3l-.04,13.4c0,.16-.06.23-.19.23h-5.16.01ZM183.18,168.12h3.92c.93,0,1.78-.34,2.5-1.05s1.09-1.55,1.09-2.56-.36-1.81-1.08-2.51-1.55-1.05-2.53-1.05h-3.92v7.15h.01Z"/>
    <path class="cls-1" d="M199.82,187.21c-.16,0-.23-.07-.23-.23l.04-31.3c0-.11.06-.19.19-.19h5.1c.11,0,.19.06.19.19l.04,31.3c0,.16-.06.23-.19.23h-5.14Z"/>
    <path class="cls-1" d="M207.6,186.98l5.65-31.3c.03-.11.1-.19.23-.19h6.61c.11,0,.2.06.23.19l5.43,31.3c.03.16-.03.23-.19.23h-5.06c-.11,0-.2-.07-.23-.23l-.5-3.33h-6.19l-.5,3.33c-.03.16-.11.23-.23.23h-5.06c-.11,0-.19-.07-.19-.23h0ZM214.48,178.78h4.38l-1.87-12.8-.27-1.68-.19,1.68-2.05,12.8Z"/>
    <path class="cls-1" d="M228.79,187.21c-.11,0-.19-.07-.19-.23l.04-31.26c0-.16.07-.23.23-.23h5.06c.16,0,.23.07.23.23l-.04,25.88h9.39c.16,0,.23.07.23.23v5.14c0,.16-.07.23-.23.23h-14.72Z"/>
    <path class="cls-1" d="M253.31,187.67c-1.64,0-3.13-.42-4.48-1.25s-2.43-1.94-3.23-3.33c-.8-1.38-1.21-2.9-1.21-4.58v-2.1c0-.16.07-.23.23-.23h5.1c.11,0,.19.07.19.23v2.1c0,1.01.33,1.87,1.01,2.57.66.72,1.48,1.06,2.41,1.06s1.75-.36,2.41-1.09,1.01-1.58,1.01-2.56c0-1.12-.73-2.1-2.18-2.92-.49-.27-1.25-.7-2.28-1.28s-2.01-1.12-2.92-1.64c-1.67-.98-2.92-2.2-3.72-3.66-.8-1.48-1.21-3.13-1.21-4.98,0-1.69.42-3.23,1.24-4.58.82-1.35,1.91-2.43,3.26-3.22s2.82-1.18,4.4-1.18,3.09.4,4.44,1.21,2.43,1.88,3.23,3.23,1.21,2.86,1.21,4.54v3.73c0,.11-.06.19-.19.19h-5.1c-.11,0-.19-.06-.19-.19l-.04-3.73c0-1.06-.33-1.92-1.01-2.6-.68-.66-1.47-1.01-2.37-1.01s-1.75.36-2.41,1.08c-.68.72-1.01,1.55-1.01,2.53s.22,1.84.63,2.5c.43.68,1.21,1.31,2.33,1.91.16.09.45.26.89.47.45.23.92.49,1.44.78s.98.55,1.39.75.66.34.75.42c1.52.85,2.71,1.9,3.61,3.12s1.32,2.74,1.32,4.54-.4,3.29-1.21,4.67-1.88,2.47-3.23,3.27-2.84,1.21-4.48,1.21v.03Z"/>
  </g>
</svg>