<?xml version="1.0" encoding="UTF-8"?>
<svg id="Laag_2" xmlns="http://www.w3.org/2000/svg" viewBox="0 0 432.7 400">
  <defs>
    <style>
      .cls-1 {
        fill: #f3edd6;
      }

      .cls-2 {
        fill: #de5419;
      }
    </style>
  </defs>
  <rect class="cls-1" x="22.52" width="400" height="400"/>
  <g>
    <path class="cls-2" d="M296.27,193.32c-.25,0-.5,0-.75-.01-.73-.02-1.46-.07-2.19-.13v70.52H95.5v-109.1h150.08c-.32-1.2-.55-2.39-.69-3.59H91.91v122.39h94.51v16.41l-38.1,1.68,7.81,14.65,39.05-.45,39.05.45,7.81-14.65-39.66-1.75v-16.35h94.51v-6.12h0v-73.97c-.21,0-.43.02-.64.02Z"/>
    <g>
      <path class="cls-2" d="M330.37,214.68c-1.21-.93-2.41-1.87-3.62-2.79-.84-.64-.76-1.14.13-1.65,2.73-1.55,5.42-3.17,8.16-4.69.86-.48,1.31-.96,1.18-2.05-.23-1.99.89-3.32,2.88-3.46.91-.07,1.56-.38,2.11-1.09,4.61-6.01-8.37-21.7-3.75-27.7.93-1.22.82-1.44-.68-1.76-17.52-3.69-35.05-7.39-52.57-11.07-.96-.2-1.52-.69-1.94-1.54-6.87-13.75-13.76-27.49-20.66-41.22-3.4-6.77-6.81-13.52-10.21-20.28-.2-.4-.65-.87-.4-1.26.33-.52.95-.13,1.41-.03,10.8,2.27,21.59,4.56,32.38,6.84,11.38,2.4,22.76,4.83,34.15,7.17,1.55.32,2.47.97,3.19,2.41,7.63,15.33,15.33,30.63,23.01,45.93,2.53,5.03,5.06,10.06,7.59,15.09.18.35.61.72.31,1.12-.3.4-.78.11-1.16.03-3.21-.66-6.42-1.31-9.62-2.03-1.09-.24-1.83,0-2.51.9-4.83,6.31,7.93,22.29,3.07,28.58-.54.7-.75,1.39-.6,2.3.35,2.16-.5,3.36-2.67,3.71-.96.15-1.31.63-1.53,1.48-.77,2.99-1.58,5.98-2.4,8.96-.42,1.54-.65,1.61-1.94.64-1.11-.83-2.2-1.69-3.29-2.53h0Z"/>
      <path class="cls-2" d="M256.03,133.55c1.89-2.45,3.77-4.91,5.67-7.35,1.26-1.62,1.5-1.59,2.4.2,5.48,10.88,10.97,21.76,16.43,32.65.46.91,1.05,1.39,2.05,1.6,11.92,2.51,23.84,5.06,35.76,7.59,1.99.42,2.09.64.85,2.25-3.38,4.39-6.92,8.67-10.1,13.2-3.35,4.76-7.9,6.56-13.48,6.4-5.74-.17-11.09-1.88-16.2-4.34-10.96-5.28-20.02-12.8-26.62-23.11-2.74-4.29-4.73-8.87-4.86-14.09-.07-2.88.77-5.46,2.51-7.75,1.85-2.42,3.72-4.83,5.58-7.24Z"/>
    </g>
    <g>
      <path class="cls-2" d="M119.29,224.51c-1.16,0-2.22-.29-3.16-.87s-1.69-1.36-2.24-2.33c-.55-.97-.83-2.06-.83-3.27l.03-9.9c0-1.16.27-2.23.81-3.19.54-.96,1.28-1.73,2.22-2.32.94-.58,1.99-.87,3.16-.87s2.21.29,3.14.86,1.67,1.34,2.22,2.3c.55.96.82,2.04.82,3.22v1.46c0,.08-.04.13-.13.13h-3.55c-.08,0-.13-.04-.13-.13v-1.46c0-.7-.23-1.3-.68-1.81-.46-.51-1.02-.76-1.7-.76-.76,0-1.34.26-1.75.78s-.6,1.12-.6,1.79v9.9c0,.78.23,1.42.68,1.9s1.01.73,1.67.73,1.24-.27,1.7-.81c.45-.54.68-1.15.68-1.82v-1.46c0-.08.04-.13.13-.13h3.59c.08,0,.13.04.13.13v1.46c0,1.21-.28,2.3-.84,3.27s-1.31,1.75-2.24,2.33-1.98.87-3.14.87Z"/>
      <path class="cls-2" d="M133.69,224.51c-1.14,0-2.18-.29-3.12-.87s-1.7-1.35-2.27-2.32c-.57-.96-.86-2.02-.86-3.19l.03-10.06c0-1.16.28-2.22.84-3.17.56-.95,1.32-1.71,2.27-2.28.95-.57,1.99-.86,3.11-.86s2.18.29,3.11.86,1.68,1.33,2.24,2.28c.56.95.84,2.01.84,3.17l.03,10.06c0,1.16-.28,2.23-.84,3.19-.56.96-1.31,1.73-2.25,2.32s-1.98.87-3.12.87ZM133.69,220.67c.63,0,1.19-.26,1.67-.78.48-.52.71-1.1.71-1.76l-.03-10.06c0-.7-.22-1.29-.67-1.78-.44-.49-1-.73-1.68-.73s-1.22.24-1.68.71c-.47.48-.7,1.07-.7,1.79v10.06c0,.7.23,1.3.7,1.79.46.5,1.03.74,1.68.74Z"/>
      <path class="cls-2" d="M142.45,224.19c-.08,0-.13-.05-.13-.16l.06-21.79c0-.08.04-.13.13-.13h3.87c.08,0,.16.04.22.13l2.89,4.19,2.89-4.19c.06-.08.14-.13.22-.13h3.9c.08,0,.13.04.13.13l.06,21.79c0,.11-.04.16-.13.16h-3.58c-.08,0-.13-.05-.13-.16l-.03-16.18-3.33,4.82-3.3-4.82-.03,16.18c0,.11-.04.16-.13.16h-3.59Z"/>
      <path class="cls-2" d="M159.51,224.19c-.11,0-.16-.05-.16-.16l.06-21.79c0-.08.04-.13.13-.13h6.09c1.95,0,3.48.59,4.62,1.78,1.13,1.19,1.7,2.79,1.7,4.82,0,1.5-.3,2.8-.89,3.9-.59,1.1-1.36,1.95-2.32,2.54-.95.59-1.99.89-3.11.89h-2.41v7.99c0,.11-.05.16-.16.16h-3.55ZM163.22,212.2h2.41c.68,0,1.26-.32,1.76-.97.5-.65.74-1.49.74-2.52,0-.82-.22-1.5-.67-2.03-.44-.53-1.06-.79-1.84-.79l-2.41.03v6.28Z"/>
      <path class="cls-2" d="M179.94,224.51c-1.12,0-2.16-.29-3.11-.87-.95-.58-1.71-1.36-2.27-2.33-.56-.97-.84-2.04-.84-3.2l.06-15.86c0-.08.04-.13.13-.13h3.55c.08,0,.13.04.13.13v15.86c0,.72.23,1.33.68,1.82s1.01.74,1.67.74,1.24-.25,1.7-.74c.45-.5.68-1.1.68-1.82v-15.86c0-.08.04-.13.13-.13h3.55c.08,0,.13.04.13.13l.06,15.86c0,1.18-.28,2.26-.84,3.24s-1.31,1.74-2.25,2.32c-.94.57-1.99.86-3.16.86Z"/>
      <path class="cls-2" d="M191.87,224.19c-.08,0-.13-.05-.13-.16v-18.08h-4.12c-.11,0-.16-.05-.16-.16l.03-3.55c0-.08.04-.13.13-.13h12.06c.11,0,.16.04.16.13v3.55c0,.11-.04.16-.13.16h-4.16l.03,18.08c0,.11-.04.16-.13.16h-3.59Z"/>
      <path class="cls-2" d="M206.94,224.51c-1.14,0-2.18-.29-3.12-.87s-1.7-1.35-2.27-2.32c-.57-.96-.86-2.02-.86-3.19l.03-10.06c0-1.16.28-2.22.84-3.17.56-.95,1.32-1.71,2.27-2.28.95-.57,1.99-.86,3.11-.86s2.18.29,3.11.86,1.68,1.33,2.24,2.28c.56.95.84,2.01.84,3.17l.03,10.06c0,1.16-.28,2.23-.84,3.19-.56.96-1.31,1.73-2.25,2.32s-1.98.87-3.12.87ZM206.94,220.67c.63,0,1.19-.26,1.67-.78.48-.52.71-1.1.71-1.76l-.03-10.06c0-.7-.22-1.29-.67-1.78-.44-.49-1-.73-1.68-.73s-1.22.24-1.68.71c-.47.48-.7,1.07-.7,1.79v10.06c0,.7.23,1.3.7,1.79.46.5,1.03.74,1.68.74Z"/>
      <path class="cls-2" d="M215.69,224.19c-.08,0-.13-.05-.13-.16l.06-21.79c0-.08.04-.13.13-.13h6.41c1.14,0,2.19.28,3.16.84.96.56,1.73,1.31,2.3,2.25s.86,2,.86,3.19c0,.78-.12,1.49-.35,2.11-.23.62-.51,1.15-.83,1.59-.32.43-.6.76-.86.97,1.14,1.27,1.71,2.76,1.71,4.47l.03,6.5c0,.11-.05.16-.16.16h-3.58c-.08,0-.13-.03-.13-.1v-6.57c0-.76-.27-1.42-.81-1.98-.54-.56-1.2-.84-1.98-.84h-2.09l-.03,9.33c0,.11-.04.16-.13.16h-3.59ZM219.44,210.9h2.73c.65,0,1.24-.24,1.74-.73s.76-1.08.76-1.78-.25-1.26-.75-1.75c-.5-.49-1.08-.73-1.76-.73h-2.73v4.98Z"/>
      <path class="cls-2" d="M231.02,224.19c-.11,0-.16-.05-.16-.16l.03-21.79c0-.08.04-.13.13-.13h3.55c.08,0,.13.04.13.13l.03,21.79c0,.11-.04.16-.13.16h-3.58Z"/>
      <path class="cls-2" d="M236.44,224.03l3.93-21.79c.02-.08.07-.13.16-.13h4.6c.08,0,.14.04.16.13l3.78,21.79c.02.11-.02.16-.13.16h-3.52c-.08,0-.14-.05-.16-.16l-.35-2.32h-4.31l-.35,2.32c-.02.11-.08.16-.16.16h-3.52c-.08,0-.13-.05-.13-.16ZM241.23,218.32h3.05l-1.3-8.91-.19-1.17-.13,1.17-1.43,8.91Z"/>
      <path class="cls-2" d="M251.19,224.19c-.08,0-.13-.05-.13-.16l.03-21.76c0-.11.05-.16.16-.16h3.52c.11,0,.16.05.16.16l-.03,18.02h6.54c.11,0,.16.05.16.16v3.58c0,.11-.05.16-.16.16h-10.25Z"/>
      <path class="cls-2" d="M268.26,224.51c-1.14,0-2.18-.29-3.12-.87s-1.69-1.35-2.25-2.32c-.56-.96-.84-2.02-.84-3.19v-1.46c0-.11.05-.16.16-.16h3.55c.08,0,.13.05.13.16v1.46c0,.7.23,1.3.7,1.79.46.5,1.03.74,1.68.74s1.22-.25,1.68-.76.7-1.1.7-1.78c0-.78-.51-1.46-1.52-2.03-.34-.19-.87-.49-1.59-.89-.72-.4-1.4-.78-2.03-1.14-1.16-.68-2.03-1.53-2.59-2.55-.56-1.03-.84-2.18-.84-3.47,0-1.18.29-2.25.86-3.19s1.33-1.69,2.27-2.24c.94-.55,1.96-.82,3.06-.82s2.15.28,3.09.84,1.69,1.31,2.25,2.25c.56.94.84,1.99.84,3.16v2.6c0,.08-.04.13-.13.13h-3.55c-.08,0-.13-.04-.13-.13l-.03-2.6c0-.74-.23-1.34-.7-1.81-.47-.46-1.02-.7-1.65-.7s-1.22.25-1.68.75c-.47.5-.7,1.08-.7,1.76s.15,1.28.44,1.74c.3.47.84.91,1.62,1.33.11.06.31.18.62.33.31.16.64.34,1,.54.36.2.68.38.97.52s.46.24.52.29c1.06.59,1.89,1.32,2.51,2.17s.92,1.91.92,3.16-.28,2.29-.84,3.25c-.56.96-1.31,1.72-2.25,2.28-.94.56-1.98.84-3.12.84Z"/>
    </g>
  </g>
</svg>